<?xml version="1.0" encoding="utf-8"?>
<!-- Generator: Adobe Illustrator 23.0.1, SVG Export Plug-In . SVG Version: 6.00 Build 0)  -->
<svg version="1.1" xmlns="http://www.w3.org/2000/svg" xmlns:xlink="http://www.w3.org/1999/xlink" x="0px" y="0px" width="469.5px"
	 height="469.5px" viewBox="0 0 469.5 469.5" style="enable-background:new 0 0 469.5 469.5;" xml:space="preserve">
<style type="text/css">
	.st0{fill:#FFFFFF;}
</style>
<g id="Layer_1">
</g>
<g id="Layer_2">
	<g>
		<path class="st0" d="M234.7,394.4c-88,0-159.7-71.6-159.7-159.7S146.7,75.1,234.7,75.1s159.7,71.6,159.7,159.7
			S322.8,394.4,234.7,394.4z M234.7,83.9c-83.2,0-150.9,67.7-150.9,150.9s67.7,150.9,150.9,150.9s150.9-67.7,150.9-150.9
			S317.9,83.9,234.7,83.9z"/>
	</g>
	<g>
		<path class="st0" d="M234.7,469.5C105.3,469.5,0,364.2,0,234.7S105.3,0,234.7,0s234.7,105.3,234.7,234.7S364.2,469.5,234.7,469.5z
			 M234.7,8.8C110.2,8.8,8.8,110.2,8.8,234.7s101.4,225.9,225.9,225.9s225.9-101.4,225.9-225.9S359.3,8.8,234.7,8.8z"/>
	</g>
	<g>
		<path class="st0" d="M86.1,90.3c-1.2-1.4-1.2-3.4,0.2-4.6l15.9-14.5c1.2-1.1,3.1-1,4.2,0.2c1.1,1.2,1,3.1-0.2,4.2L92.7,87.9
			l6.8,7.5l11.8-10.8c1.2-1.1,3.1-1,4.2,0.2c1.1,1.2,1,3.1-0.2,4.2l-11.8,10.8l8.2,8.9c1.2,1.3,1.1,3.3-0.2,4.6
			c-1.4,1.2-3.4,1.2-4.6-0.2L86.1,90.3z"/>
		<path class="st0" d="M125,80.2l-9.4-15.8c-0.9-1.5-0.4-3.5,1.2-4.4c1.5-0.9,3.5-0.4,4.4,1.1l9.2,15.6c3.5,5.9,8.4,7.3,13.4,4.3
			c5-2.9,6.3-7.7,2.8-13.6l-9.4-15.8c-0.9-1.5-0.4-3.5,1.2-4.5c1.5-0.9,3.5-0.4,4.4,1.1l9.2,15.5c5.6,9.5,3.1,17.5-5.2,22.4
			C138.6,91.1,130.5,89.4,125,80.2z"/>
		<path class="st0" d="M156.4,42.3c-0.5-1.7,0.4-3.6,2.1-4.1l0.7-0.2c1.5-0.5,2.6,0,3.8,0.8l24.9,17.2L181,34.3
			c-0.5-1.7,0.4-3.5,2.1-4c1.7-0.5,3.5,0.4,4,2l9.5,29.6c0.5,1.7-0.3,3.5-2,4l-0.3,0.1c-1.5,0.5-2.6,0-3.8-0.8l-25.6-17.7l7.1,22.4
			c0.5,1.7-0.4,3.5-2.1,4c-1.7,0.5-3.5-0.4-4-2L156.4,42.3z"/>
		<path class="st0" d="M202.3,29.8c-0.1-1.8,1.2-3.4,3-3.5l10.5-0.8c11.6-0.9,20.2,6.4,21.1,16.8l0,0.1c0.8,10.4-6.6,19.1-18.2,20
			l-10.5,0.8c-1.8,0.1-3.4-1.2-3.5-3L202.3,29.8z M218.3,56.4c7.8-0.6,12.4-6.2,11.8-13.5l0-0.1c-0.6-7.2-6.1-12.1-13.8-11.5
			l-7.3,0.6l2,25.1L218.3,56.4z"/>
		<path class="st0" d="M241.1,56.6L258.8,28c1-1.5,2.4-2.3,4.2-2.1l0.3,0c1.8,0.2,3,1.4,3.5,3.1l9.5,32.2c0.2,0.5,0.2,1,0.2,1.4
			c-0.2,1.7-1.7,2.9-3.5,2.7c-1.5-0.2-2.4-1.2-2.8-2.7l-2.1-7.3l-17.8-2.4l-4,6.7c-0.7,1.2-1.9,1.8-3.3,1.6
			c-1.7-0.2-2.8-1.7-2.6-3.4C240.5,57.5,240.7,57.1,241.1,56.6z M266.5,49.4L262,33.8l-8.4,14L266.5,49.4z"/>
		<path class="st0" d="M284.4,48.9L284.4,48.9c3.6-10,14-15.4,24.5-11.6c5.4,1.9,8.3,4.8,10.5,8.2c0.5,0.7,0.7,1.8,0.3,2.9
			c-0.6,1.7-2.4,2.5-4.1,1.9c-0.8-0.3-1.3-0.8-1.6-1.3c-1.7-2.8-3.8-4.9-7.2-6.1c-6.6-2.4-13.5,1.3-15.9,8.1l0,0.1
			c-2.5,6.8,0.4,14.1,7,16.5c3.7,1.3,6.6,1,9.9-0.2c0.6-0.2,1.3-0.3,2.1,0c1.5,0.6,2.4,2.3,1.9,3.9c-0.3,0.9-1.1,1.5-1.8,1.8
			c-4.3,1.7-8.7,2.1-14.3,0.1C285.5,69.6,280.8,58.9,284.4,48.9z"/>
		<path class="st0" d="M314.5,76.6c-0.2-0.8-0.2-1.8,0.3-2.7c0.9-1.5,2.8-2,4.3-1.1c0.7,0.4,1.1,1,1.3,1.7c0.6,2.5,1.6,4.3,3.7,5.5
			c3.1,1.8,6.3,1,8.9-3.2l10.8-18.3c0.9-1.5,2.9-2,4.5-1.1c1.5,0.9,2.1,2.9,1.2,4.4l-10.9,18.5c-2.2,3.8-5,5.9-8,6.7
			c-3,0.8-6.2,0.1-9.4-1.8C317.2,82.9,315.3,79.8,314.5,76.6z"/>
		<path class="st0" d="M338.9,90.1l30.6-13.9c1.6-0.7,3.3-0.6,4.7,0.6l0.2,0.2c1.4,1.2,1.7,2.8,1.1,4.5l-10,32.1
			c-0.1,0.5-0.4,1-0.6,1.3c-1.2,1.3-3.1,1.5-4.4,0.3c-1.1-1-1.3-2.4-0.9-3.8l2.3-7.2l-13.5-11.9l-7.1,3.3c-1.3,0.6-2.6,0.5-3.6-0.5
			c-1.3-1.1-1.4-3-0.3-4.3C337.9,90.5,338.3,90.3,338.9,90.1z M364,98.3l5-15.5l-14.8,6.9L364,98.3z"/>
	</g>
	<g>
		<path class="st0" d="M56.5,258.5c1.8-0.4,3.5,0.7,3.9,2.5l2.3,10.3c2.5,11.4-3.5,21-13.7,23.2l-0.1,0
			c-10.2,2.3-19.8-3.8-22.4-15.2L24.2,269c-0.4-1.8,0.7-3.5,2.5-3.9L56.5,258.5z M32.3,278c1.7,7.6,7.9,11.4,15,9.8l0.1,0
			c7.1-1.6,11.2-7.7,9.5-15.3l-1.6-7.1l-24.6,5.5L32.3,278z"/>
		<path class="st0" d="M65.9,296.4c1.7-0.8,3.6-0.1,4.3,1.6l5.6,12.1c1.8,3.8,2.1,7.4,1.1,10.2c-0.8,2.2-2.3,3.8-4.5,4.8l-0.1,0
			c-4,1.9-7.3,0.5-9.7-1.4c0.5,4.6-0.5,8.3-5.1,10.4l-0.1,0c-6,2.8-11.5-0.7-14.9-8.2l-5.8-12.6c-0.8-1.7-0.1-3.6,1.6-4.3
			L65.9,296.4z M47.6,323.7c1.9,4,4.6,5.8,7.6,4.4l0.1,0c2.8-1.3,3.5-4.3,1.3-9l-4.3-9.4l-9.2,4.2L47.6,323.7z M61,315.4
			c1.7,3.8,4.4,5.7,7.5,4.3l0.1,0c2.6-1.2,3.3-4.1,1.6-7.9l-3.9-8.5l-8.9,4.1L61,315.4z"/>
		<path class="st0" d="M56.4,344.6l32.8-7.2c1.8-0.4,3.4,0.1,4.5,1.6l0.2,0.3c1.1,1.5,1.1,3.1,0.2,4.7l-16.5,29.3
			c-0.2,0.5-0.5,0.9-0.9,1.1c-1.4,1-3.3,0.8-4.3-0.6c-0.9-1.2-0.8-2.6-0.1-3.9l3.8-6.5l-10.7-14.4l-7.6,1.7
			c-1.4,0.4-2.6-0.1-3.5-1.2c-1-1.4-0.7-3.2,0.6-4.2C55.4,344.8,55.9,344.7,56.4,344.6z M79.3,357.8l8.2-14.1l-15.9,3.7L79.3,357.8z
			"/>
		<path class="st0" d="M104.8,359.1c1.2-1.4,3.2-1.6,4.6-0.4l0.5,0.4c1.1,0.9,1.3,2.1,1.2,3.3l-2.9,20.6l20-6.1
			c1.2-0.4,2.3-0.2,3.3,0.6l0.5,0.4c1.4,1.2,1.5,3.3,0.4,4.6l-20.1,23.6c-1.2,1.4-3.2,1.5-4.6,0.3c-1.3-1.1-1.5-3.2-0.4-4.5
			l14.4-16.9l-15.7,4.5c-1.2,0.4-2.3,0.3-3.2-0.5c-0.9-0.8-1.1-1.8-1-3l1.9-16.1l-14.4,16.8c-1.2,1.4-3.1,1.5-4.5,0.3
			c-1.4-1.2-1.5-3.1-0.4-4.5L104.8,359.1z"/>
		<path class="st0" d="M138.7,408.6l-3-21.4c-0.1-0.8,0-1.6,0.4-2.4c0.8-1.5,2.7-2.1,4.4-1.2c1.3,0.7,1.7,1.8,1.9,3.2l2.1,18
			l16.3-8.2c1.2-0.7,2.5-0.9,3.7-0.3c1.7,0.9,2.1,2.8,1.3,4.3c-0.4,0.8-1.2,1.3-1.9,1.6l-19.3,9.3l-5.5,10.2
			c-0.8,1.6-2.8,2.2-4.4,1.3c-1.6-0.8-2.2-2.8-1.3-4.4L138.7,408.6z"/>
		<path class="st0" d="M178.9,422.1l0-0.1c2-10.2,11.5-17.3,22.7-15.1c11.2,2.1,17.3,12.1,15.4,22.3l0,0.1
			c-2,10.2-11.5,17.3-22.7,15.1C183.1,442.3,176.9,432.3,178.9,422.1z M210.2,428.1l0-0.1c1.4-7.1-2.7-13.9-9.9-15.3
			c-7.2-1.4-13.4,3.4-14.7,10.5l0,0.1c-1.4,7.1,2.7,13.9,9.9,15.2C202.7,439.9,208.8,435.2,210.2,428.1z"/>
		<path class="st0" d="M240,414.5c-0.2-1.8,1-3.4,2.8-3.7l0.7-0.1c1.4-0.2,2.5,0.4,3.2,1.3l13.4,16l8.9-18.9
			c0.5-1.2,1.4-1.9,2.7-2.1l0.7-0.1c1.8-0.2,3.4,1,3.7,2.8l4,30.7c0.2,1.8-1,3.4-2.8,3.6c-1.7,0.2-3.4-1.1-3.6-2.8l-2.9-22
			l-7.2,14.6c-0.5,1.1-1.3,1.9-2.5,2c-1.2,0.2-2.1-0.4-2.9-1.3l-10.6-12.2l2.8,22c0.2,1.8-1,3.3-2.8,3.6c-1.8,0.2-3.3-1-3.6-2.7
			L240,414.5z"/>
		<path class="st0" d="M296.3,421.2l3.6,10.1l15.8-5.6c1.5-0.5,3.2,0.3,3.8,1.8c0.5,1.5-0.3,3.2-1.8,3.8l-18.8,6.7
			c-1.7,0.6-3.6-0.2-4.2-2l-3.8-10.8l-0.3,0.2c-0.3,0.2-0.7,0.4-0.9,0.5c-1.5,0.5-3.1-0.3-3.7-1.8c-0.5-1.3,0-2.5,1-3.3l1.8-1.3
			l-4.4-12.5c-0.6-1.7,0.3-3.5,2-4.1c1.7-0.6,3.5,0.3,4.1,2l3.8,10.7l5.9-4.3c0.3-0.2,0.7-0.4,0.9-0.5c1.5-0.5,3.1,0.3,3.7,1.8
			c0.5,1.3,0,2.6-1,3.3L296.3,421.2z"/>
		<path class="st0" d="M317.8,411.7L317.8,411.7c-5.4-9-3-20.7,6.8-26.5c9.8-5.8,21-2.5,26.3,6.4l0.1,0.1c5.4,8.9,2.9,20.6-6.8,26.4
			C334.4,424,323.2,420.6,317.8,411.7z M345.2,395.3L345.2,395.3c-3.8-6.3-11.3-8.7-17.6-4.9c-6.3,3.8-7.7,11.4-4,17.6l0.1,0.1
			c3.7,6.2,11.2,8.6,17.5,4.8C347.5,409.1,348.9,401.5,345.2,395.3z"/>
		<path class="st0" d="M347.2,375c-1.3-1.3-1.2-3.4,0.1-4.6l7.6-7.3c8.4-8,19.7-7.8,26.9-0.3l0.1,0.1c7.2,7.5,7,18.9-1.4,27
			l-7.6,7.3c-1.3,1.3-3.4,1.2-4.6-0.1L347.2,375z M376.5,385.6c5.6-5.4,5.7-12.7,0.6-17.9l-0.1-0.1c-5-5.2-12.4-5.6-18-0.2l-5.3,5
			l17.4,18.2L376.5,385.6z"/>
		<path class="st0" d="M395.1,351.8l-21.6,0.3c-0.8,0-1.5-0.2-2.3-0.7c-1.4-1-1.7-3-0.7-4.5c0.8-1.2,2-1.5,3.4-1.5l18.1,0.2
			l-6.1-17.2c-0.5-1.3-0.6-2.6,0.2-3.7c1.1-1.6,3-1.8,4.4-0.8c0.7,0.5,1.1,1.3,1.4,2.1l6.8,20.3l9.5,6.7c1.5,1,1.8,3,0.7,4.5
			c-1,1.5-3,1.8-4.5,0.8L395.1,351.8z"/>
		<path class="st0" d="M405,330.2L405,330.2c-9.7-4.4-14.3-15.2-9.6-25.4c2.4-5.2,5.5-7.9,9.1-9.8c0.8-0.4,1.8-0.6,2.9-0.1
			c1.6,0.7,2.3,2.6,1.6,4.3c-0.4,0.8-0.9,1.3-1.4,1.5c-2.9,1.5-5.2,3.4-6.7,6.7c-2.9,6.4,0.2,13.5,6.8,16.5l0.1,0
			c6.6,3,14.1,0.8,17-5.7c1.6-3.6,1.6-6.5,0.6-9.9c-0.2-0.6-0.2-1.4,0.1-2.1c0.7-1.5,2.5-2.2,4-1.5c0.9,0.4,1.4,1.2,1.7,1.9
			c1.3,4.4,1.4,8.8-1,14.3C425.7,330.8,414.7,334.6,405,330.2z"/>
		<path class="st0" d="M406,288.7c-1.8-0.4-2.8-2.1-2.4-3.9c0.4-1.8,2.1-2.8,3.8-2.5l12.1,2.7l3.8-17.2l-12.1-2.7
			c-1.8-0.4-2.8-2.1-2.5-3.8c0.4-1.8,2.1-2.9,3.9-2.5l30.4,6.7c1.8,0.4,2.8,2.1,2.4,3.9c-0.4,1.8-2.1,2.8-3.8,2.5l-12.3-2.7
			l-3.8,17.2l12.3,2.7c1.8,0.4,2.8,2.1,2.5,3.8c-0.4,1.8-2.1,2.9-3.9,2.5L406,288.7z"/>
	</g>
	<path class="st0" d="M330,197.6v98.5c0,5.6-4.5,10-10,10h-30.7c-3-2.3-7.5-6.7-8.4-12.4c0,0,4.5-7.6,5.2-14.1
		c0.7-6.5,1.2-10.1,4.8-14.4c3.6-4.3-2.6-3.6-2.6-3.6s-4.4,0.2-8,9.4c-3.7,9.3-8.7-0.4-8.7-0.4s-5.8-9.9-8.6-16.8
		c-2.9-7-5.4-10.1-6.9-10.5c-1.5-0.4-3.2,1-2.8,2.6c0.4,1.6,6.7,16.2,6.7,16.2s1.5,3.4,0.7,4c-0.8,0.6-1.1,1.1-2.6-0.2
		c-1.4-1.3-11.7-13.8-14.1-16.3c0,0-2.3-2.7-4.4-1.1c-2,1.6-1.1,3.1-0.5,4c0.6,0.9,11.2,13.6,12.1,14.8c0.8,1.2,2.7,3.3,1.5,4.2
		c-1.1,0.8-2.3,0.2-2.9-0.2c-0.6-0.5-14.7-11.9-14.7-11.9s-2.5-1.7-4,0c-1.5,1.7,0.7,3.7,1.2,4.2c0.6,0.6,11.3,9.8,12.9,11.2
		c1.5,1.4,3.5,4.5,1.6,5c-1.9,0.5-5.1,0-6.2-0.3c-1.1-0.2-9.6-2.3-10.5-1.9c-0.9,0.3-1.5,0.7-1.1,1.8c0.4,1.1,1.5,1.8,2.9,2.4
		c1.3,0.5,9.2,2.6,12.2,4.7c3,2.2,6.6,5.2,10.5,9.7c3.9,4.4,7,6.1,7,6.1s1.6,1.3,3.7,3.7h-116c-5.5,0-10-4.5-10-10v-98.5
		c0-3,1.4-5.9,3.7-7.8l18-14.5c7.3,7.8,10.1,12.9,10.1,12.9s0.3,4.8,3.5,12.3c3.2,7.5,4.9,13.7,5.8,18.8c0.9,5-1.3,16-1.4,18
		c-0.1,2,0.2,3.7,1.3,4.9c1.1,1.2,1.9,0.7,2.9-0.3c0.9-0.9,3.4-12.7,3.8-14.1c0.4-1.5,1.6-5.9,3.4-7.9c1.8-2,4.4,2.3,5.2,5
		c0.8,2.7,5.9,21.6,6.3,22.7c0.4,1.1,1.5,4.9,4.5,4.1c3-0.9,2.3-5,2.3-5s-5.8-24.3-6-25.4c-0.2-1.1-0.2-2.8,1.5-3.7
		c1.7-0.9,3.2,2.6,4.3,4.4c1,1.8,10.5,22.5,11.3,23.8c0.7,1.3,2,3.2,5.3,1.7c3.3-1.5,1.2-6.1,1.2-6.1c-1.7-4.4-11.1-24.7-11.9-27.2
		c-0.8-2.5,0-2.7,1.3-3.3c1.2-0.6,4.6,3.3,4.6,3.3s14.5,16.4,16.2,17.8c1.7,1.5,4.4,0.2,4.8-1.9c0.4-2.1-2-7.1-8.9-14.9
		c-7-7.7-15.8-20.8-15.8-20.8s-8.9-11.9,4.7-10.9c13.7,0.9,16.5-4.4,16.5-4.4s4.6-7.3-3-5.4c-7.5,1.9-12.3,0.4-20.8-2.5
		c-8.5-3-20.7-1.9-20.7-1.9c-5-3.4-8.8-7.6-11.4-11l46.3-37.2c3.7-2.9,8.9-2.9,12.5,0l85.3,68.5C328.6,191.7,330,194.6,330,197.6z"
		/>
</g>
</svg>
