<?xml version="1.0" encoding="utf-8"?>
<!-- Generator: Adobe Illustrator 19.0.0, SVG Export Plug-In . SVG Version: 6.00 Build 0)  -->
<svg version="1.1" id="Layer_2" xmlns="http://www.w3.org/2000/svg" xmlns:xlink="http://www.w3.org/1999/xlink" x="0px" y="0px"
	 viewBox="195 291.6 986.8 259.3" style="enable-background:new 195 291.6 986.8 259.3;" xml:space="preserve">
<style type="text/css">
	.st0{opacity:0.38;}
	.st1{fill:#010101;}
	.st2{fill:#ED1C24;}
	.st3{fill:#FFFFFF;}
</style>
<g class="st0">
	<polygon class="st1" points="1976.2,438.7 1967.8,436.5 1990.7,407.8 2002.1,403.8 	"/>
	<polygon class="st1" points="1998.9,444.6 1980.9,439.9 2015.2,391.7 2036.3,382.4 	"/>
	<polygon class="st1" points="2073.7,464.1 2010.7,447.7 2053.8,366.5 2096.9,344.6 	"/>
</g>
<path class="st2" d="M2069.3,403.7c-3-5.4-10.9-8.5-17.6-7c-6.6,1.4-9.7,6.8-7,12c2.7,5.3,10.4,8.7,17.3,7.4
	C2069,414.8,2072.3,409.2,2069.3,403.7z"/>
<path class="st2" d="M2094.5,414.8l7.3,12.5c0.6,1,0.7,2,0.3,2.9l-3.7,8.1c-0.3,0.8-0.3,1.6,0.1,2.5l24.1,55.4
	c1.1,2.6-0.4,4.7-3.6,4.8l-24.3,0.7c-2.9,0.1-6.3-1.7-7.8-4.2l-31.5-51.3c-0.5-0.8-1.3-1.5-2.2-2.1l-9.7-5.7c-1-0.6-1.8-1.4-2.3-2.4
	l-5.5-11.5c-0.7-1.5-0.3-3,1.1-3.9c7.4-4.7,15.2-7.4,22.7-8.9c7.7-1.3,17.5-1.7,29.7-0.2C2091.4,411.9,2093.6,413.1,2094.5,414.8z"
	/>
<g>
	<path class="st3" d="M2065.7,404.5c-2.1-3.8-7.7-6-12.5-5c-4.7,1-6.9,4.8-5,8.5c1.9,3.8,7.4,6.2,12.3,5.3
		C2065.5,412.3,2067.9,408.4,2065.7,404.5z"/>
	<path class="st3" d="M2089.8,417.7l5.8,10c0.5,0.8,0.5,1.6,0.2,2.3l-3,6.5c-0.3,0.6-0.3,1.3,0,2l19.3,44.3c0.9,2.1-0.3,3.7-2.9,3.8
		l-19.4,0.5c-2.3,0.1-5-1.4-6.2-3.3l-25.2-41c-0.4-0.6-1-1.2-1.8-1.7l-7.8-4.5c-0.8-0.5-1.5-1.2-1.8-1.9l-4.4-9.2
		c-0.6-1.2-0.2-2.4,0.8-3.1c5.9-3.8,12.2-5.9,18.1-7.1c6.2-1,14-1.4,23.8-0.2C2087.3,415.4,2089,416.4,2089.8,417.7z"/>
</g>
<g>
	<g>
		<polygon class="st3" points="210.2,461.3 195,457.4 236.3,405.6 257,398.3 		"/>
		<polygon class="st3" points="251.1,472 218.7,463.6 280.6,376.6 318.6,359.9 		"/>
		<path class="st3" d="M427.9,291.6l-23.3,119.9c-9.4-0.8-18-1-25.7-0.6c1.7-3.8,1.6-8.2-0.9-12.6c-5.3-9.8-19.6-15.4-31.7-12.7
			c-11.9,2.6-17.5,12.2-12.7,21.7c2.1,4,5.7,7.5,10.2,9.9c-8.3,2.8-16.6,6.6-24.6,11.7c-2.4,1.6-3.2,4.3-1.9,7l10,20.8
			c0.8,1.7,2.3,3.2,4.1,4.3l17.5,10.2c1.7,1,3.1,2.3,4,3.8l17.4,28.3l-98-25.6l77.9-146.4L427.9,291.6z"/>
	</g>
	<g>
		<path class="st3" d="M371.2,399.6c-3.8-7-13.8-11-22.3-9.1c-8.3,1.8-12.2,8.7-8.9,15.4c3.4,6.8,13.1,11.2,21.9,9.6
			C370.8,413.9,375,406.7,371.2,399.6z"/>
		<path class="st3" d="M414.6,423.9l10.6,18.4c0.8,1.5,1,3,0.4,4.3l-5.4,11.8c-0.5,1.1-0.5,2.4,0.1,3.7l35.2,81.7
			c1.7,3.9-0.6,6.8-5.3,6.9l-35.4,0.2c-4.2,0-9.1-2.7-11.3-6.4l-45.3-75.3c-0.7-1.2-1.8-2.3-3.2-3.1l-13.8-8.4
			c-1.5-0.9-2.6-2.1-3.2-3.4l-7.8-16.7c-1-2.2-0.4-4.4,1.5-5.6c10.5-6.8,21.7-10.6,32.3-12.7c11.1-1.8,25.2-2.4,42.8-0.1
			C410.1,419.7,413.2,421.5,414.6,423.9z"/>
	</g>
</g>
<g>
	<path class="st3" d="M819.1,341.1c3.3,0.6,6.6,1.1,9.9,1.9c8.5,2.1,16.1,5.9,21.6,13c9.1,11.6,8.9,34.9-8.9,45
		c-6.3,3.6-13,5.5-20.2,6.8c0.5,0.2,1,0.4,1.6,0.5c10.1,2.6,18,8.4,23.2,17.5c3.4,6,6.2,12.3,9.2,18.5c3.1,6.7,6.4,13.2,11,19
		c4.7,5.8,10,10.6,17.9,11.3c0.2,0,0.3,0.2,0.7,0.6c-0.8,0.1-1.3,0.2-1.7,0.2c-10-0.1-19.9-0.1-29.9-0.5
		c-11.6-0.5-20.2-5.6-25.3-16.4c-4-8.5-6.3-17.5-9.1-26.4c-1.4-4.7-2.9-9.4-4.9-13.8c-4-8.8-9.2-11.3-19.1-10c0,0.7-0.1,1.4-0.1,2.1
		c0.1,16.4,0.1,32.8,0.3,49.2c0,2.3,0.5,4.6,0.9,6.8c0.9,4.6,3.7,7.2,8.4,7.8c0.8,0.1,1.6,0.2,2.3,0.8c-17.8,0-35.6,0-53.4,0
		c0-0.1-0.1-0.2-0.1-0.3c0.3-0.1,0.6-0.3,0.9-0.3c7.8-0.6,9.8-4.8,10.6-11c0.4-3.3,0.5-6.7,0.5-10.1c0-30.1,0.1-60.3,0-90.4
		c0-4.1-0.3-8.3-0.9-12.3c-0.9-5.6-3.6-7.8-9.2-8.7c-0.7-0.1-1.2-0.6-1.9-1C775.2,341.1,797.2,341.1,819.1,341.1z M795,407
		c5.5,0,10.8,0.1,16,0c3.7-0.1,6.7-1.9,8.7-4.9c1.3-2,2.4-4.1,3.1-6.4c2.6-8.9,2.7-18,2.1-27.1c-0.4-6.1-1.5-12-4.1-17.5
		c-3.6-7.8-8.7-10.3-17.1-8.7c-3.7,0.7-6.2,2.7-7.1,6.3c-0.7,2.6-1.2,5.3-1.3,7.9c-0.2,16-0.2,32-0.3,48.1
		C794.9,405.3,795,406,795,407z"/>
	<path class="st3" d="M626.3,341.1c-0.3,0.3-0.5,0.8-0.8,0.9c-8.4,1.9-10.7,4.4-11.1,12.7c-0.2,3.1-0.3,6.3-0.3,9.4
		c0,29.4,0,58.9,0,88.3c0,4.5,0.2,9.1,0.9,13.5c0.9,5.6,3.7,7.8,9.3,8.6c0.6,0.1,1.2,0.2,1.8,0.8c-17.8,0-35.7,0-53.5,0
		c0-0.1-0.1-0.3-0.1-0.4c0.6-0.1,1.1-0.2,1.7-0.3c5.6-0.8,8.3-3.2,9.3-8.8c0.5-2.8,0.9-5.6,0.9-8.4c0.1-37.3,0.1-74.5,0.1-111.8
		c0-0.3-0.1-0.7-0.4-1.1c-1.7,4.1-3.4,8.1-5.1,12.2c-12.3,30-24.7,59.9-37,89.9c-0.4,1-0.6,2.3-2.3,2c-1.7-0.2-3.4,0.5-4.6-1.8
		c-15.5-28.7-31.2-57.4-46.8-86.1c-0.7-1.3-1.5-2.6-2.6-4.4c-0.1,1.3-0.1,1.9-0.1,2.6c0,26.6,0,53.2,0,79.8c0,7.1,1,14.1,3.8,20.6
		c3,6.9,7.4,12.5,15,14.8c0.8,0.2,1.6,0.4,2.5,0.5c0.7,0.1,1.4,0.3,2.2,0.4c0,0.2,0,0.5,0,0.7c-16.1,0-32.1,0-48.2,0
		c0-0.3,0-0.6,0-0.9c8.4-0.2,14.2-4.8,18.2-11.7c4.2-7.1,5.6-15,5.7-23.1c0.1-27.8,0.1-55.5,0-83.3c0-0.7-0.1-1.6-0.5-2.2
		c-4.3-5.8-9.1-11-16.8-12.2c-0.4-0.1-0.7-0.6-1.1-0.9c14.9,0,29.8,0,44.6,0c0.1,0.3,0.1,0.6,0.3,0.9c13.3,25.7,26.7,51.3,40,76.9
		c0.2,0.4,0.5,0.6,0.9,1.1c10.9-26.4,21.6-52.7,32.4-78.9C598.4,341.1,612.4,341.1,626.3,341.1z"/>
	<path class="st3" d="M703.2,341.1c3.1,0.6,6.2,1.1,9.2,1.9c13.4,3.9,23.8,11.5,27.6,25.6c5.3,20-2.9,39.8-27,46.4
		c-5.5,1.5-11.3,1.9-17,2.2c-5.3,0.4-10.7,0.1-16.3,0.1c0,0.9-0.1,1.7-0.1,2.4c0.1,13.3,0.1,26.7,0.3,40c0,2.2,0.4,4.4,0.9,6.6
		c1.2,5.2,3.5,7.2,8.7,8.1c0.7,0.1,1.5,0.2,2.2,0.7c-17.8,0-35.7,0-53.5,0c0-0.1-0.1-0.2-0.1-0.3c0.3-0.1,0.6-0.3,0.9-0.3
		c7.6-0.6,9.8-4.5,10.5-11c0.4-3.4,0.5-6.9,0.5-10.3c0-30,0.1-60,0-89.9c0-4.2-0.3-8.4-0.9-12.6c-0.9-5.6-3.6-7.8-9.2-8.7
		c-0.7-0.1-1.2-0.6-1.9-1C659.6,341.1,681.4,341.1,703.2,341.1z M679.6,416.5c4.5,0,8.9-0.1,13.2,0c6.3,0.1,10.7-2.8,13.1-8.5
		c0.7-1.7,1.4-3.6,1.8-5.4c2.3-9.6,2.1-19.3,1.8-29c-0.3-7.8-1.5-15.5-4.8-22.7c-3.7-7.8-8.2-10.1-16.7-8.5c-3.6,0.7-6.1,2.6-7,6.1
		c-0.7,2.7-1.3,5.5-1.3,8.3c-0.2,19.1-0.2,38.2-0.3,57.2C679.4,414.8,679.5,415.6,679.6,416.5z"/>
	<path class="st3" d="M1127.4,494.3c5.6-0.8,6-4.9,6-9.3c0-15.9,0-31.9,0-47.8c0-1.1-0.1-2.1-0.2-3.2c-0.3-3.2-1.7-5.3-5.2-5.8
		c7,0,14.1,0,20.8,0c0.1,1.2,0.2,2.3,0.4,3.4c-0.4,0.9-1.1,1.9-1.1,2.8c-0.2,10.8-0.3,21.6-0.5,32.4c-0.1,2.4,0.4,4.3,2.3,5.8
		c-0.6-0.4-1.3-0.8-2.6-1.6c0.4,6.7,0.7,12.9,1.1,19.1c0.2,2,1.7,3.1,3.7,3.6c0.6,0.1,1.3,0.4,1.9,0.6
		C1145.2,494.3,1136.3,494.3,1127.4,494.3z"/>
	<path class="st3" d="M1029.9,427.6c5.3-1.2,10.5-0.3,15.5,1.5c9.4,3.4,16.6,11.2,15.8,23.9c-0.6,10.1-8.1,19.6-18.7,22.2
		c-10,2.5-19.6,1.3-27.8-5.2c-12.5-10-11-30.1,2.8-38.4C1021.3,429.4,1025.4,427.8,1029.9,427.6c-4.1,1.3-6.2,4.6-7.4,8.6
		c-1.9,6.7-1.8,13.4-0.7,20.2c0.9,5.3,2.4,10.4,5.7,14.8c1.9,2.5,4.2,4.3,7.3,4.7c4.6,0.5,7.8-1.9,9.7-7s2.2-10.5,1.9-15.8
		c-0.4-6.6-1.5-13.1-5-18.8C1038.7,430,1035.2,427.2,1029.9,427.6z"/>
	<path class="st3" d="M932.1,476.2c-8.9,0.7-17.3-0.2-25.2-4c-13.7-6.6-19-19.2-18.1-32.8c1.2-17.7,14.2-27.8,29.2-31.1
		c8.6-1.9,17-0.5,25.4,1.5c4.1,1,5.3,0.2,6.3-3.8c0,7.4,0,14.8,0,22.9c-1.9-7.9-5.7-13.7-12.2-17.5c-9.3-5.5-21.8-5-27.9,8.1
		c-1.2,2.6-2.2,5.4-2.9,8.2c-2.5,11.4-1.9,22.5,3,33.2c3.1,6.7,7.5,12.2,15,14.2C927.1,475.8,929.5,475.9,932.1,476.2z"/>
	<path class="st3" d="M986.5,475.4c-8.4,0-16.7,0-25.1,0c5-0.8,5.3-4.6,5.3-8.4c0.1-10.2,0-20.4,0-30.6c0-0.3,0-0.6,0-0.9
		c-0.3-4.7-1.1-5.8-5.6-7.3c7.3,0,14.3,0,21.1,0c-0.3,3.1-0.7,6.3-0.8,9.4c-0.2,8.7-0.2,17.5-0.3,26.2c0,1.8,0.2,3.5,0.4,5.3
		C981.9,473,982.7,474.1,986.5,475.4z"/>
	<path class="st3" d="M1122.6,475.4c-7,0-14.1,0-20.7,0c0.3-4.3,0.8-8.6,0.8-12.8c0.1-9.2,0-18.4-0.2-27.6c-0.1-4.4-1.1-5.6-5.8-6.8
		c7.6,0,14.7,0,21.5,0c-0.3,3.4-0.9,6.8-1,10.2c-0.1,9.4-0.1,18.9-0.1,28.3c0,0.1,0,0.2,0,0.2
		C1117.5,470.8,1117.6,474.6,1122.6,475.4z"/>
	<path class="st3" d="M1065.9,428.1c6.9,0,13.8,0,20.7,0c0.2,0,0.4,0.1,0.1,0c-0.3,4.5-0.8,8.9-0.8,13.3c-0.1,8.7,0.1,17.5,0.2,26.2
		c0,1.2,0.3,2.4,0.6,3.6c1,3.1,2.7,4.1,6.9,4.3c-11.4,4-22.1-3.4-22.2-15.6c-0.1-7.4,0-14.9,0-22.3c0-1.2,0-2.5-0.2-3.7
		C1070.4,430,1069.8,429.4,1065.9,428.1z"/>
	<path class="st3" d="M1155,475.2c5.4,1.1,8.8-0.6,10.5-5.9c1-3.1,1.5-6.4,1.7-9.6c0.6-7.9,0.7-15.7-1.1-23.5
		c-0.2-0.9-0.5-1.8-0.8-2.6c-2-5-5-6.5-10.3-5.3c2.3-1.8,5-1.3,7.4-1c11.2,1.6,18.5,9.6,19.2,20.9c0.4,5.4,0,10.7-2.2,15.7
		c-4.2,9.4-13.2,13-21.9,12.3C1156.7,476.2,1155.8,475.6,1155,475.2z"/>
	<path class="st3" d="M951.2,475.8c-0.8-2.3-2.5-3-4.5-2.7c-2.6,0.4-5.2,1.2-7.8,1.8c-0.9,0.2-1.8,0.5-2.9,0.8
		c0-8.7,0.1-17.1-0.1-25.6c-0.1-2.7-2.2-4.2-4.9-4.8c8.5,0,17,0,25.6,0c-4.9,0.7-5.3,4.5-5.4,8.2
		C951.1,460.9,951.2,468.3,951.2,475.8z"/>
	<path class="st3" d="M985.6,433.9c3-3.9,6.3-7.2,11.7-6.7c3.4,0.3,5.5,2.3,5.5,5.3c0,2.7-1.2,4.3-3.8,5c-2.5,0.6-4.6-0.3-5.8-2.5
		c-0.2-0.3-0.3-0.7-0.5-1c-1.4-3.7-2.6-4-5.6-1.4C986.5,433,986.1,433.4,985.6,433.9z"/>
</g>
<g>
	<g>
		<polygon class="st3" points="1986.9,731.7 1971.7,727.7 2013,675.9 2033.7,668.6 		"/>
		<polygon class="st3" points="2027.8,742.3 1995.4,733.9 2057.3,646.9 2095.3,630.2 		"/>
		<path class="st3" d="M2204.6,561.9l-23.3,119.9c-9.4-0.8-18-1-25.7-0.6c1.7-3.8,1.6-8.2-0.9-12.6c-5.3-9.8-19.6-15.4-31.7-12.7
			c-11.9,2.6-17.5,12.2-12.7,21.7c2.1,4,5.7,7.5,10.2,9.9c-8.3,2.8-16.6,6.6-24.6,11.7c-2.4,1.6-3.2,4.3-1.9,7l10,20.8
			c0.8,1.7,2.3,3.2,4.1,4.3l17.5,10.2c1.7,1,3.1,2.3,4,3.8l17.4,28.3l-98-25.6l77.9-146.4L2204.6,561.9z"/>
	</g>
	<g>
		<path class="st3" d="M2147.9,670c-3.8-7-13.8-11-22.3-9.1c-8.3,1.8-12.2,8.7-8.9,15.4c3.4,6.8,13.1,11.2,21.9,9.6
			C2147.5,684.2,2151.7,677.1,2147.9,670z"/>
		<path class="st3" d="M2191.2,694.3l10.6,18.4c0.8,1.5,1,3,0.4,4.3l-5.4,11.8c-0.5,1.1-0.5,2.4,0.1,3.7l35.2,81.7
			c1.7,3.9-0.6,6.8-5.3,6.9l-35.4,0.2c-4.2,0-9.1-2.7-11.3-6.4l-45.3-75.3c-0.7-1.2-1.8-2.3-3.2-3.1l-13.8-8.4
			c-1.5-0.9-2.6-2.1-3.2-3.4l-7.8-16.7c-1-2.2-0.4-4.4,1.5-5.6c10.5-6.8,21.7-10.6,32.3-12.7c11.1-1.8,25.2-2.4,42.8-0.1
			C2186.8,690,2189.9,691.9,2191.2,694.3z"/>
	</g>
</g>
<g>
	<path class="st3" d="M2106.9,799.5c1.7,0.3,3.5,0.6,5.1,1c4.4,1.1,8.4,3.1,11.3,6.8c4.7,6,4.7,18.2-4.7,23.5
		c-3.3,1.9-6.8,2.9-10.5,3.6c0.3,0.1,0.5,0.2,0.8,0.3c5.3,1.4,9.4,4.4,12.1,9.1c1.8,3.1,3.3,6.4,4.8,9.6c1.6,3.5,3.3,6.9,5.7,9.9
		c2.4,3,5.2,5.5,9.4,5.9c0.1,0,0.2,0.1,0.4,0.3c-0.4,0-0.7,0.1-0.9,0.1c-5.2-0.1-10.4,0-15.6-0.2c-6-0.2-10.5-2.9-13.2-8.6
		c-2.1-4.4-3.3-9.1-4.7-13.8c-0.8-2.4-1.5-4.9-2.6-7.2c-2.1-4.6-4.8-5.9-10-5.2c0,0.4-0.1,0.7-0.1,1.1c0,8.6,0.1,17.1,0.1,25.7
		c0,1.2,0.2,2.4,0.5,3.6c0.5,2.4,1.9,3.8,4.4,4.1c0.4,0.1,0.8,0.1,1.2,0.4c-9.3,0-18.6,0-27.8,0c0-0.1,0-0.1,0-0.2
		c0.2-0.1,0.3-0.2,0.5-0.2c4.1-0.3,5.1-2.5,5.5-5.7c0.2-1.7,0.3-3.5,0.3-5.3c0-15.7,0-31.4,0-47.2c0-2.1-0.1-4.3-0.5-6.4
		c-0.5-2.9-1.9-4.1-4.8-4.5c-0.3-0.1-0.6-0.3-1-0.5C2084.1,799.5,2095.5,799.5,2106.9,799.5z M2094.4,833.9c2.9,0,5.6,0.1,8.4,0
		c1.9,0,3.5-1,4.5-2.6c0.7-1,1.2-2.2,1.6-3.3c1.4-4.6,1.4-9.4,1.1-14.1c-0.2-3.2-0.8-6.3-2.2-9.1c-1.9-4-4.5-5.3-8.9-4.5
		c-1.9,0.4-3.2,1.4-3.7,3.3c-0.3,1.3-0.6,2.7-0.7,4.1c-0.1,8.4-0.1,16.7-0.2,25.1C2094.3,833,2094.4,833.4,2094.4,833.9z"/>
	<path class="st3" d="M2006.4,799.5c-0.1,0.2-0.3,0.4-0.4,0.5c-4.4,1-5.6,2.3-5.8,6.6c-0.1,1.6-0.1,3.3-0.1,4.9
		c0,15.4,0,30.7,0,46.1c0,2.3,0.1,4.7,0.5,7c0.5,2.9,1.9,4.1,4.8,4.5c0.3,0,0.6,0.1,0.9,0.4c-9.3,0-18.6,0-27.9,0
		c0-0.1,0-0.2-0.1-0.2c0.3-0.1,0.6-0.1,0.9-0.2c2.9-0.4,4.3-1.7,4.8-4.6c0.2-1.5,0.4-2.9,0.5-4.4c0-19.4,0-38.9,0-58.3
		c0-0.2,0-0.4-0.2-0.6c-0.9,2.1-1.8,4.2-2.6,6.3c-6.4,15.6-12.9,31.3-19.3,46.9c-0.2,0.5-0.3,1.2-1.2,1.1c-0.9-0.1-1.8,0.3-2.4-0.9
		c-8.1-15-16.3-29.9-24.4-44.9c-0.4-0.7-0.8-1.3-1.4-2.3c0,0.7-0.1,1-0.1,1.4c0,13.9,0,27.8,0,41.6c0,3.7,0.5,7.3,2,10.8
		c1.5,3.6,3.9,6.5,7.8,7.7c0.4,0.1,0.9,0.2,1.3,0.3s0.8,0.1,1.1,0.2c0,0.1,0,0.2,0,0.4c-8.4,0-16.8,0-25.1,0c0-0.2,0-0.3,0-0.5
		c4.4-0.1,7.4-2.5,9.5-6.1c2.2-3.7,2.9-7.8,3-12.1c0.1-14.5,0-29,0-43.4c0-0.4,0-0.8-0.2-1.1c-2.2-3-4.8-5.7-8.8-6.4
		c-0.2,0-0.4-0.3-0.6-0.5c7.8,0,15.5,0,23.3,0c0,0.1,0.1,0.3,0.1,0.4c7,13.4,13.9,26.8,20.9,40.1c0.1,0.2,0.3,0.3,0.5,0.6
		c5.7-13.8,11.3-27.5,16.9-41.1C1991.8,799.5,1999.1,799.5,2006.4,799.5z"/>
	<path class="st3" d="M2046.5,799.5c1.6,0.3,3.2,0.6,4.8,1c7,2,12.4,6,14.4,13.4c2.7,10.5-1.5,20.8-14.1,24.2
		c-2.9,0.8-5.9,1-8.9,1.2c-2.8,0.2-5.6,0-8.5,0c0,0.5-0.1,0.9-0.1,1.3c0,7,0.1,13.9,0.1,20.9c0,1.1,0.2,2.3,0.5,3.4
		c0.6,2.7,1.8,3.8,4.5,4.2c0.4,0.1,0.8,0.1,1.1,0.4c-9.3,0-18.6,0-27.9,0v-0.1c0.2-0.1,0.3-0.2,0.5-0.2c4-0.3,5.1-2.4,5.5-5.7
		c0.2-1.8,0.3-3.6,0.3-5.4c0-15.6,0-31.3,0-46.9c0-2.2-0.1-4.4-0.5-6.6c-0.5-2.9-1.9-4.1-4.8-4.5c-0.3-0.1-0.6-0.3-1-0.5
		C2023.7,799.5,2035.1,799.5,2046.5,799.5z M2034.2,838.9c2.4,0,4.6,0,6.9,0c3.3,0.1,5.6-1.4,6.8-4.4c0.4-0.9,0.7-1.9,1-2.8
		c1.2-5,1.1-10.1,0.9-15.1c-0.2-4.1-0.8-8.1-2.5-11.9c-1.9-4.1-4.3-5.2-8.7-4.4c-1.9,0.4-3.2,1.4-3.6,3.2c-0.4,1.4-0.7,2.9-0.7,4.3
		c-0.1,9.9-0.1,19.9-0.2,29.8C2034.1,838,2034.1,838.4,2034.2,838.9z"/>
	<path class="st3" d="M2267.7,879.5c2.9-0.4,3.1-2.6,3.1-4.9c0-8.3,0-16.6,0-24.9c0-0.6-0.1-1.1-0.1-1.7c-0.1-1.7-0.9-2.8-2.7-3
		c3.7,0,7.3,0,10.9,0c0.1,0.6,0.1,1.2,0.2,1.8c-0.2,0.5-0.6,1-0.6,1.5c-0.1,5.6-0.1,11.3-0.3,16.9c0,1.2,0.2,2.3,1.2,3
		c-0.3-0.2-0.7-0.4-1.4-0.8c0.2,3.5,0.3,6.7,0.6,10c0.1,1.1,0.9,1.6,1.9,1.9c0.3,0.1,0.7,0.2,1,0.3
		C2277,879.5,2272.4,879.5,2267.7,879.5z"/>
	<path class="st3" d="M2216.9,844.7c2.8-0.6,5.5-0.1,8.1,0.8c4.9,1.8,8.7,5.8,8.2,12.5c-0.3,5.3-4.2,10.2-9.7,11.6
		c-5.2,1.3-10.2,0.7-14.5-2.7c-6.5-5.2-5.7-15.7,1.4-20C2212.4,845.6,2214.6,844.7,2216.9,844.7c-2.2,0.7-3.3,2.4-3.9,4.5
		c-1,3.5-0.9,7-0.4,10.6c0.5,2.8,1.2,5.4,3,7.7c1,1.3,2.2,2.3,3.8,2.4c2.4,0.2,4.1-1,5.1-3.7s1.1-5.5,1-8.3
		c-0.2-3.4-0.8-6.8-2.6-9.8C2221.5,845.9,2219.7,844.4,2216.9,844.7z"/>
	<path class="st3" d="M2165.9,870c-4.7,0.3-9-0.1-13.1-2.1c-7.1-3.4-9.9-10-9.5-17.1c0.6-9.3,7.4-14.6,15.2-16.3
		c4.5-1,8.9-0.3,13.3,0.8c2.1,0.5,2.8,0.1,3.3-2c0,3.9,0,7.7,0,11.9c-1-4.1-3-7.1-6.3-9.1c-4.8-2.8-11.4-2.6-14.6,4.2
		c-0.6,1.4-1.2,2.8-1.5,4.3c-1.3,5.9-1,11.8,1.6,17.3c1.6,3.5,3.9,6.4,7.8,7.4C2163.3,869.8,2164.5,869.8,2165.9,870z"/>
	<path class="st3" d="M2194.3,869.6c-4.4,0-8.7,0-13.1,0c2.6-0.4,2.8-2.4,2.8-4.4c0.1-5.3,0-10.6,0-16c0-0.2,0-0.3,0-0.5
		c-0.2-2.5-0.6-3-2.9-3.8c3.8,0,7.4,0,11,0c-0.1,1.6-0.4,3.3-0.4,4.9c-0.1,4.6-0.1,9.1-0.2,13.7c0,0.9,0.1,1.8,0.2,2.7
		C2191.8,868.4,2192.3,868.9,2194.3,869.6z"/>
	<path class="st3" d="M2265.3,869.6c-3.7,0-7.4,0-10.8,0c0.2-2.2,0.4-4.5,0.4-6.7c0-4.8,0-9.6-0.1-14.4c0-2.3-0.6-2.9-3-3.5
		c3.9,0,7.7,0,11.2,0c-0.2,1.8-0.5,3.6-0.5,5.3c-0.1,4.9,0,9.8,0,14.8v0.1C2262.6,867.2,2262.6,869.2,2265.3,869.6z"/>
	<path class="st3" d="M2235.7,844.9c3.6,0,7.2,0,10.8,0c0.1,0,0.2,0,0,0c-0.2,2.4-0.4,4.7-0.4,6.9c0,4.6,0,9.1,0.1,13.7
		c0,0.6,0.1,1.3,0.3,1.9c0.5,1.6,1.4,2.1,3.6,2.3c-5.9,2.1-11.5-1.8-11.6-8.1c-0.1-3.9,0-7.8,0-11.6c0-0.6,0-1.3-0.1-1.9
		C2238,845.9,2237.7,845.6,2235.7,844.9z"/>
	<path class="st3" d="M2282.1,869.5c2.8,0.6,4.6-0.3,5.5-3.1c0.5-1.6,0.8-3.3,0.9-5c0.3-4.1,0.3-8.2-0.5-12.2
		c-0.1-0.5-0.3-0.9-0.4-1.4c-1-2.6-2.6-3.4-5.4-2.8c1.2-0.9,2.6-0.7,3.9-0.5c5.8,0.8,9.6,5,10,10.9c0.2,2.8,0,5.6-1.2,8.2
		c-2.2,4.9-6.9,6.8-11.4,6.4C2283,870,2282.6,869.7,2282.1,869.5z"/>
	<path class="st3" d="M2175.8,869.8c-0.4-1.2-1.3-1.6-2.3-1.4c-1.4,0.2-2.7,0.6-4.1,0.9c-0.5,0.1-0.9,0.2-1.5,0.4
		c0-4.5,0.1-8.9,0-13.4c0-1.4-1.1-2.2-2.5-2.5c4.4,0,8.9,0,13.3,0c-2.6,0.4-2.8,2.3-2.8,4.3C2175.8,862,2175.8,865.9,2175.8,869.8z"
		/>
	<path class="st3" d="M2193.8,847.9c1.5-2,3.3-3.7,6.1-3.5c1.8,0.1,2.9,1.2,2.9,2.8c0,1.4-0.6,2.3-2,2.6c-1.3,0.3-2.4-0.2-3-1.3
		c-0.1-0.2-0.2-0.4-0.2-0.5c-0.7-1.9-1.4-2.1-2.9-0.7C2194.3,847.4,2194,847.7,2193.8,847.9z"/>
</g>
</svg>
